<svg width="44" height="44" viewBox="0 0 44 44" fill="none" xmlns="http://www.w3.org/2000/svg">
<g clip-path="url(#clip0_1_23812)">
<path d="M40.735 40.7206L40.1323 35.7306C40.1313 35.7223 40.1302 35.714 40.1288 35.7057C39.9633 34.6862 39.488 33.7423 38.7676 33.0022C38.0472 32.2621 37.1165 31.7615 36.1019 31.5684L29.9556 30.4123H29.9552L28.2906 30.0992C29.9038 29.7856 31.4919 29.3546 33.0423 28.8097C33.7346 28.5655 34.3207 28.0889 34.701 27.461C35.0813 26.8331 35.2322 26.0929 35.128 25.3662L34.169 18.7914H34.704C35.047 18.791 35.3758 18.6546 35.6183 18.4121C35.8609 18.1695 35.9973 17.8407 35.9976 17.4977V14.8712C35.9973 14.5282 35.8609 14.1994 35.6183 13.9569C35.3758 13.7143 35.047 13.5779 34.704 13.5775H33.6401C33.557 13.3792 33.4518 13.1909 33.3265 13.0161L32.7916 9.34827C32.4123 6.75116 31.1109 4.37732 29.1254 2.66084C27.1398 0.944359 24.6027 -7.16808e-05 21.978 0.00024422H21.4932C18.8319 0.0037571 16.2631 0.976805 14.2674 2.73733C12.2716 4.49785 10.9857 6.92522 10.6503 9.56526L10.1469 13.5775H9.09455C8.75155 13.5779 8.42271 13.7143 8.18017 13.9568C7.93763 14.1994 7.80121 14.5282 7.80085 14.8712V17.4977C7.80121 17.8407 7.93763 18.1696 8.18017 18.4121C8.42271 18.6546 8.75155 18.7911 9.09455 18.7914H9.49296L8.66194 25.4159C8.5752 26.131 8.73377 26.8544 9.1117 27.4676C9.48963 28.0809 10.0645 28.5477 10.7423 28.7916C12.3408 29.3569 13.9797 29.8005 15.6451 30.1188L14.2269 30.3976L14.2174 30.3995L8.14082 31.5945C7.19546 31.7818 6.32387 32.2369 5.62986 32.9056C4.93586 33.5743 4.44868 34.4284 4.22637 35.3661C4.22362 35.3774 4.22124 35.3887 4.21923 35.4001L3.29996 40.523C3.20462 40.9395 3.20437 41.3721 3.29925 41.7887C3.39412 42.2053 3.58168 42.5951 3.84797 42.9292C4.11425 43.2634 4.45243 43.5332 4.83734 43.7186C5.22226 43.904 5.64402 44.0003 6.07127 44.0002H37.9249C38.3352 44.0003 38.7406 43.9115 39.1134 43.74C39.4861 43.5685 39.8174 43.3184 40.0844 43.0068C40.3513 42.6953 40.5477 42.3296 40.66 41.935C40.7723 41.5403 40.7979 41.1261 40.735 40.7206ZM33.8605 14.8685L34.7087 14.8711L34.704 17.5024H33.8605V14.8685ZM33.0031 19.7298L33.8524 25.5524C33.914 25.9833 33.8242 26.4222 33.5985 26.7944C33.3728 27.1666 33.025 27.4491 32.6144 27.5937C30.8281 28.2217 28.9901 28.692 27.1217 28.9994V26.5142L27.5879 26.2225C28.2672 25.7994 28.8406 25.2262 29.2639 24.5469H29.3691C30.1133 24.5462 30.8268 24.2503 31.3531 23.7241C31.8794 23.198 32.1755 22.4846 32.1764 21.7404V20.2992C32.4832 20.1593 32.7631 19.9666 33.0031 19.7298ZM24.4017 26.6955C23.6502 27.1614 22.7835 27.4083 21.8993 27.4083C21.0151 27.4083 20.1485 27.1614 19.397 26.6955L18.0608 25.8595C18.0586 25.8581 18.0562 25.8568 18.054 25.8553L16.8938 25.1295C16.3242 24.7759 15.8546 24.2825 15.5297 23.6962C15.2047 23.1098 15.0352 22.45 15.0374 21.7796V13.0576C15.6708 12.9707 16.2771 12.7443 16.8126 12.3948C17.348 12.0453 17.7992 11.5813 18.1337 11.0364C18.5434 11.4414 18.9875 11.8101 19.4611 12.1381L19.5862 12.2233C22.5191 14.2111 25.6853 13.7478 28.7609 13.2207V21.7798C28.7616 22.2862 28.6651 22.7879 28.4768 23.2579H24.1552C24.0239 22.8864 23.7807 22.5646 23.4591 22.3368C23.1375 22.109 22.7533 21.9865 22.3592 21.986H21.2646C20.7597 21.9866 20.2756 22.1874 19.9186 22.5444C19.5616 22.9015 19.3608 23.3855 19.3602 23.8904V23.9145C19.3608 24.4194 19.5616 24.9034 19.9186 25.2604C20.2757 25.6175 20.7597 25.8183 21.2646 25.8189H22.3592C22.7533 25.8184 23.1375 25.6958 23.4591 25.4681C23.7807 25.2403 24.0239 24.9186 24.1552 24.547H27.6298C27.4116 24.7689 27.1681 24.9644 26.9043 25.1297L24.4017 26.6955ZM25.8326 27.3208V30.2554C25.8323 30.3287 25.8154 30.401 25.7831 30.4668C25.7509 30.5326 25.7041 30.5902 25.6464 30.6353L22.0061 33.4687L18.5223 30.6434C18.424 30.5642 18.361 30.4493 18.347 30.3239C18.3467 30.3192 18.3467 30.3144 18.3462 30.3098C18.3452 30.2966 18.344 30.2834 18.344 30.27V27.5574L18.7135 27.7886C19.6703 28.3817 20.7737 28.696 21.8994 28.696C23.0251 28.6959 24.1285 28.3816 25.0852 27.7884L25.8326 27.3208ZM22.9745 23.8904V23.9144C22.9743 24.0776 22.9094 24.234 22.7941 24.3493C22.6787 24.4647 22.5223 24.5295 22.3592 24.5297H21.2646C21.1015 24.5295 20.9451 24.4647 20.8297 24.3493C20.7143 24.234 20.6495 24.0776 20.6493 23.9144V23.8904C20.6495 23.7272 20.7143 23.5708 20.8297 23.4554C20.945 23.3401 21.1014 23.2752 21.2646 23.275H22.3592C22.5223 23.2752 22.6787 23.3401 22.7941 23.4554C22.9094 23.5708 22.9743 23.7272 22.9745 23.8904ZM29.8632 23.1736C29.9874 22.7194 30.0502 22.2506 30.05 21.7797V20.5568H30.8874V21.7404C30.8868 22.0561 30.7879 22.3638 30.6043 22.6207C30.4208 22.8776 30.1617 23.0709 29.8632 23.1737V23.1736ZM32.5714 14.6792V17.6897C32.5709 18.1081 32.4045 18.5092 32.1087 18.805C31.8129 19.1009 31.4118 19.2673 30.9934 19.2678H30.05V13.1012H30.9934C31.4118 13.1016 31.8129 13.2681 32.1087 13.5639C32.4045 13.8597 32.5709 14.2609 32.5714 14.6792ZM11.9292 9.72571C12.2252 7.3971 13.3594 5.2561 15.1198 3.70331C16.8801 2.15052 19.1459 1.29233 21.4933 1.28931H21.9781C24.2931 1.28897 26.5309 2.12193 28.2822 3.63586C30.0336 5.1498 31.1815 7.24354 31.516 9.53424L31.8683 11.9493C31.5856 11.8584 31.2905 11.8121 30.9935 11.8121H29.438C29.4348 11.812 29.4317 11.8123 29.4286 11.8121H29.4055L29.403 11.8123C29.3829 11.8123 29.3628 11.8134 29.3428 11.8154L29.3342 11.8163C29.3218 11.8177 29.3095 11.8185 29.2973 11.8206L28.8561 11.8963C25.7995 12.4229 22.9124 12.9202 20.3096 11.1562L20.1923 11.0763C19.5436 10.6269 18.9599 10.0905 18.4574 9.48216C18.3838 9.39307 18.2877 9.32539 18.179 9.28619C18.0704 9.24698 17.9532 9.2377 17.8397 9.25931C17.7262 9.28092 17.6207 9.33262 17.534 9.40902C17.4474 9.48541 17.3829 9.58369 17.3472 9.69356C17.1465 10.3152 16.752 10.8562 16.2216 11.2374C15.6912 11.6186 15.0527 11.82 14.3996 11.8122L14.3967 11.8123L14.3929 11.8121H12.8051C12.402 11.8122 12.0035 11.8979 11.6361 12.0635L11.9292 9.72571ZM11.2271 14.6791C11.2276 14.2608 11.394 13.8598 11.6898 13.564C11.9856 13.2681 12.3867 13.1017 12.805 13.1012H13.7483V19.2678H12.805C12.3866 19.2673 11.9855 19.1009 11.6897 18.805C11.3939 18.5092 11.2275 18.1081 11.227 17.6897L11.2271 14.6791ZM9.08983 17.4977L9.09447 14.8666H9.93794V17.5004L9.08983 17.4977ZM11.1723 27.5765C10.7709 27.4318 10.4305 27.1551 10.2068 26.7918C9.98305 26.4284 9.88931 25.9999 9.94087 25.5764L10.6882 19.619C10.9561 19.9143 11.2828 20.1503 11.6474 20.3119C12.0119 20.4734 12.4063 20.5568 12.805 20.5568H13.7483V21.7797C13.7455 22.6688 13.9702 23.5438 14.4012 24.3214C14.8321 25.0991 15.4549 25.7535 16.2103 26.2224L17.055 26.751V29.054C15.0522 28.7467 13.0826 28.2521 11.1723 27.5765ZM17.2682 31.1133C17.3793 31.3177 17.5295 31.4983 17.7103 31.6447L21.2741 34.5347C21.4772 34.7009 21.7308 34.7928 21.9931 34.7954C22.2554 34.7979 22.5108 34.7109 22.717 34.5488L26.4379 31.6528C26.6162 31.5136 26.7661 31.3413 26.8794 31.1455L29.1116 31.5653C29.0286 31.8177 28.873 32.04 28.6642 32.2043L22.033 37.3653C22.0059 37.3865 21.9724 37.3978 21.9379 37.3975C21.9035 37.3971 21.8702 37.3851 21.8435 37.3633L15.491 32.2112C15.2804 32.0405 15.1271 31.8095 15.0517 31.5492L17.2682 31.1133ZM39.1082 42.165C38.9623 42.3364 38.781 42.474 38.5766 42.5683C38.3723 42.6626 38.1499 42.7113 37.9249 42.7112H6.07127C5.83691 42.7112 5.60557 42.6582 5.39458 42.5562C5.1836 42.4541 4.99843 42.3057 4.85294 42.1219C4.70746 41.9382 4.60542 41.7239 4.55448 41.4952C4.50353 41.2664 4.505 41.0291 4.55877 40.801C4.56141 40.7897 4.56373 40.7783 4.56573 40.7668L5.48475 35.6456C5.65239 34.9523 6.01502 34.3214 6.52979 33.8277C7.04455 33.3339 7.68992 32.9979 8.38961 32.8592L13.7827 31.7988C13.9184 32.3557 14.2335 32.8526 14.6795 33.2128L21.0319 38.3647C21.2844 38.5709 21.5996 38.6849 21.9256 38.6881C22.2516 38.6912 22.5689 38.5833 22.8254 38.3821L29.4567 33.2211C29.9151 32.8653 30.2422 32.3672 30.3865 31.8051L35.8632 32.8352C36.6153 32.9783 37.3053 33.3488 37.8402 33.8965C38.375 34.4442 38.7289 35.1428 38.8541 35.8981L39.4565 40.8867C39.4576 40.8949 39.4588 40.9031 39.4601 40.9113C39.4957 41.1333 39.4827 41.3604 39.422 41.5769C39.3612 41.7934 39.2541 41.994 39.1081 42.165H39.1082Z" fill="#F4F4F4"/>
</g>
<defs>
<clipPath id="clip0_1_23812">
<rect width="44" height="44" fill="white"/>
</clipPath>
</defs>
</svg>
