<svg width="78" height="78" viewBox="0 0 78 78" fill="none" xmlns="http://www.w3.org/2000/svg">
<g filter="url(#filter0_d_1_22479)">
<circle cx="39" cy="39.1001" r="33.3643" fill="#833800"/>
<path d="M38.3002 61.3201C33.94 61.3201 29.5687 61.2759 25.2085 61.3423C23.2226 61.3755 21.9134 59.9817 21.9356 58.068C21.98 54.7494 21.9356 51.4308 21.9578 48.1123C21.9689 46.5526 22.8342 45.4243 24.2433 45.1145C24.5095 45.0592 24.798 45.0482 25.0643 45.0482C33.9067 45.0482 42.7381 45.0482 51.5805 45.0482C53.3446 45.0482 54.6094 46.1875 54.6316 47.9353C54.676 51.4419 54.676 54.9375 54.6316 58.4441C54.6094 60.1587 53.3446 61.3091 51.6138 61.3091C47.176 61.3202 42.7381 61.3201 38.3002 61.3201ZM45.5339 50.6012C46.6767 50.6012 47.7862 50.568 48.8845 50.6123C49.4836 50.6344 49.4836 50.3136 49.4726 49.8822C49.4615 49.484 49.528 49.1189 48.9067 49.13C47.3868 49.1632 45.8779 49.1521 44.3579 49.13C43.903 49.1189 43.781 49.2959 43.7921 49.7163C43.8032 52.0392 43.8032 54.3622 43.7921 56.6852C43.7921 57.0835 43.9141 57.2383 44.3357 57.2383C45.8668 57.2273 47.4089 57.2162 48.94 57.2494C49.528 57.2604 49.4836 56.9175 49.4836 56.5304C49.4836 56.1432 49.5724 55.745 48.9289 55.7671C47.9526 55.8113 46.9652 55.7892 45.9888 55.7671C45.8224 55.7671 45.5339 55.6012 45.5229 55.4906C45.4674 54.9817 45.5007 54.4729 45.5007 53.8866C46.2662 53.8866 46.9652 53.8755 47.6641 53.8866C48.0191 53.8976 48.1856 53.7649 48.1523 53.4109C48.1412 53.2671 48.1412 53.1122 48.1523 52.9684C48.1967 52.5592 48.0191 52.4154 47.6086 52.4264C46.9319 52.4485 46.244 52.4375 45.5339 52.4375C45.5339 51.807 45.5339 51.2317 45.5339 50.6012ZM36.3254 49.1521C36.3808 49.3844 36.403 49.495 36.4363 49.5946C37.102 51.7959 37.7677 53.9972 38.4444 56.1985C38.8328 57.4485 38.5887 57.183 39.8535 57.2383C40.3084 57.2604 40.5413 57.1277 40.6745 56.6631C41.3513 54.4065 42.0613 52.1609 42.7603 49.9154C42.8268 49.6941 42.8712 49.4729 42.96 49.1521C42.4496 49.1521 42.028 49.1189 41.6175 49.1742C41.44 49.1964 41.1959 49.3844 41.1405 49.5503C40.9186 50.2251 40.7521 50.9331 40.5635 51.6189C40.2862 52.6255 40.0199 53.6211 39.7425 54.6277C39.5761 54.4618 39.5095 54.2959 39.4652 54.1299C39.0547 52.6366 38.6552 51.1432 38.2337 49.6609C38.1782 49.4729 38.0229 49.2074 37.8786 49.1853C37.3905 49.1189 36.9023 49.1521 36.3254 49.1521ZM27.1279 53.1897C27.1279 54.3733 27.1279 55.5459 27.1279 56.7295C27.1279 57.0171 27.1501 57.2383 27.5273 57.2383C29.1582 57.2273 30.778 57.2383 32.4089 57.2162C32.531 57.2162 32.6974 57.006 32.7529 56.8512C32.8084 56.6852 32.7529 56.4861 32.7751 56.3091C32.8195 55.8998 32.6419 55.7671 32.2314 55.7671C31.2884 55.7892 30.3453 55.756 29.4023 55.7782C28.9807 55.7892 28.8254 55.6675 28.8365 55.2251C28.8587 53.5658 28.8587 51.9065 28.8476 50.2472C28.8365 49.0194 29.0362 49.1632 27.7159 49.13C27.2832 49.1189 27.1279 49.2627 27.139 49.6941C27.139 50.8667 27.1279 52.0282 27.1279 53.1897ZM35.3712 53.1897C35.3712 52.172 35.3823 51.1654 35.3712 50.1477C35.3601 49.0083 35.5266 49.1853 34.3727 49.141C33.8291 49.1189 33.6848 49.307 33.6959 49.8269C33.7181 51.9286 33.6959 54.0304 33.707 56.1321C33.7181 57.3711 33.5184 57.2162 34.8276 57.2604C35.2825 57.2715 35.3934 57.1056 35.3823 56.6852C35.3601 55.5016 35.3712 54.3401 35.3712 53.1897Z" fill="white"/>
<path d="M38.2668 43.234C34.6056 43.234 30.9444 43.223 27.2831 43.2451C26.8504 43.2451 26.6174 43.1013 26.4177 42.7363C21.5583 34.1965 26.7728 23.6435 36.5361 22.2829C44.0694 21.232 51.181 26.8293 51.9355 34.3846C52.235 37.3602 51.6581 40.1367 50.1936 42.7363C49.9828 43.1013 49.7498 43.2451 49.3171 43.2451C45.6226 43.234 41.9503 43.234 38.2668 43.234ZM35.2713 34.639C35.2602 36.0438 35.2491 37.4376 35.2602 38.8425C35.2713 39.7938 35.7705 40.0814 36.5805 39.5947C38.8438 38.2009 41.096 36.796 43.3482 35.3801C44.0139 34.9598 44.025 34.4288 43.3482 34.0085C41.0849 32.5925 38.8105 31.1766 36.525 29.7718C35.7816 29.3182 35.2713 29.6169 35.2602 30.4908C35.2713 31.8846 35.2713 33.2673 35.2713 34.639Z" fill="white"/>
<path d="M19.2285 35.889C19.2285 26.9732 25.3417 19.1967 34.0843 17.3604C41.4511 15.8118 47.8749 17.825 52.7677 23.5772C57.9489 29.6723 58.6923 36.5749 55.6301 43.92C55.6079 43.9753 55.5857 44.0195 55.5636 44.0748C55.386 44.4399 55.0976 44.6279 54.7093 44.4288C54.3209 44.2297 54.3099 43.8978 54.4874 43.5328C55.7411 40.9664 56.318 38.2342 56.207 35.3913C56.0406 30.8891 54.4319 26.94 51.3143 23.6657C48.0636 20.2586 44.0695 18.356 39.3542 18.0905C34.173 17.8029 29.6575 19.4511 25.9186 23.0352C22.0577 26.7188 20.2714 31.2984 20.4045 36.597C20.46 38.9753 21.0369 41.2651 22.0687 43.4222C22.2574 43.8204 22.3572 44.1633 21.9134 44.4177C21.5473 44.639 21.2477 44.462 20.9815 43.92C19.8276 41.5195 19.2285 38.7873 19.2285 35.889Z" fill="white"/>
</g>
<defs>
<filter id="filter0_d_1_22479" x="0.692885" y="0.792983" width="76.6142" height="76.6143" filterUnits="userSpaceOnUse" color-interpolation-filters="sRGB">
<feFlood flood-opacity="0" result="BackgroundImageFix"/>
<feColorMatrix in="SourceAlpha" type="matrix" values="0 0 0 0 0 0 0 0 0 0 0 0 0 0 0 0 0 0 127 0" result="hardAlpha"/>
<feOffset/>
<feGaussianBlur stdDeviation="2.47143"/>
<feComposite in2="hardAlpha" operator="out"/>
<feColorMatrix type="matrix" values="0 0 0 0 1 0 0 0 0 1 0 0 0 0 1 0 0 0 0.5 0"/>
<feBlend mode="normal" in2="BackgroundImageFix" result="effect1_dropShadow_1_22479"/>
<feBlend mode="normal" in="SourceGraphic" in2="effect1_dropShadow_1_22479" result="shape"/>
</filter>
</defs>
</svg>
