<svg width="24" height="24" viewBox="0 0 24 24" fill="none" xmlns="http://www.w3.org/2000/svg">
<path d="M17.45 22.7501C16.32 22.7501 15.13 22.4801 13.9 21.9601C12.7 21.4501 11.49 20.7501 10.31 19.9001C9.14 19.0401 8.01 18.0801 6.94 17.0301C5.88 15.9601 4.92 14.8301 4.07 13.6701C3.21 12.4701 2.52 11.2701 2.03 10.1101C1.51 8.87006 1.25 7.67006 1.25 6.54006C1.25 5.76006 1.39 5.02006 1.66 4.33006C1.94 3.62006 2.39 2.96006 3 2.39006C3.77 1.63006 4.65 1.25006 5.59 1.25006C5.98 1.25006 6.38 1.34006 6.72 1.50006C7.11 1.68006 7.44 1.95006 7.68 2.31006L10 5.58006C10.21 5.87006 10.37 6.15006 10.48 6.43006C10.61 6.73006 10.68 7.03006 10.68 7.32006C10.68 7.70006 10.57 8.07006 10.36 8.42006C10.1762 8.73244 9.95081 9.01839 9.69 9.27006L9.01 9.98006C9.02 10.0101 9.03 10.0301 9.04 10.0501C9.16 10.2601 9.4 10.6201 9.86 11.1601C10.35 11.7201 10.81 12.2301 11.27 12.7001C11.86 13.2801 12.35 13.7401 12.81 14.1201C13.38 14.6001 13.75 14.8401 13.97 14.9501L13.95 15.0001L14.68 14.2801C14.99 13.9701 15.29 13.7401 15.58 13.5901C16.13 13.2501 16.83 13.1901 17.53 13.4801C17.79 13.5901 18.07 13.7401 18.37 13.9501L21.69 16.3101C22.06 16.5601 22.33 16.8801 22.49 17.2601C22.64 17.6401 22.71 17.9901 22.71 18.3401C22.71 18.8201 22.6 19.3001 22.39 19.7501C22.18 20.2001 21.92 20.5901 21.59 20.9501C21.02 21.5801 20.4 22.0301 19.68 22.3201C18.99 22.6001 18.24 22.7501 17.45 22.7501ZM5.59 2.75006C5.04 2.75006 4.53 2.99006 4.04 3.47006C3.58 3.90006 3.26 4.37006 3.06 4.88006C2.85 5.40006 2.75 5.95006 2.75 6.54006C2.75 7.47006 2.97 8.48006 3.41 9.52006C3.86 10.5801 4.49 11.6801 5.29 12.7801C6.09 13.8801 7 14.9501 8 15.9601C9 16.9501 10.08 17.8701 11.19 18.6801C12.27 19.4701 13.38 20.1101 14.48 20.5701C16.19 21.3001 17.79 21.4701 19.11 20.9201C19.62 20.7101 20.07 20.3901 20.48 19.9301C20.71 19.6801 20.89 19.4101 21.04 19.0901C21.16 18.8401 21.22 18.5801 21.22 18.3201C21.22 18.1601 21.19 18.0001 21.11 17.8201C21.0461 17.6962 20.9492 17.5924 20.83 17.5201L17.51 15.1601C17.31 15.0201 17.13 14.9201 16.96 14.8501C16.74 14.7601 16.65 14.6701 16.31 14.8801C16.11 14.9801 15.93 15.1301 15.73 15.3301L14.97 16.0801C14.58 16.4601 13.98 16.5501 13.52 16.3801L13.25 16.2601C12.84 16.0401 12.36 15.7001 11.83 15.2501C11.35 14.8401 10.83 14.3601 10.2 13.7401C9.71 13.2401 9.22 12.7101 8.71 12.1201C8.24 11.5701 7.9 11.1001 7.69 10.7101L7.57 10.4101C7.51 10.1801 7.49 10.0501 7.49 9.91006C7.49 9.55006 7.62 9.23006 7.87 8.98006L8.62 8.20006C8.82 8.00006 8.97 7.81006 9.07 7.64006C9.15 7.51006 9.18 7.40006 9.18 7.30006C9.18 7.22006 9.15 7.10006 9.1 6.98006C9.03 6.82006 8.92 6.64006 8.78 6.45006L6.46 3.17006C6.36638 3.0357 6.23868 2.9287 6.09 2.86006C5.93 2.79006 5.76 2.75006 5.59 2.75006ZM13.95 15.0101L13.79 15.6901L14.06 14.9901C14.01 14.9801 13.97 14.9901 13.95 15.0101Z" fill="#F9F9F9"/>
</svg>
